<svg xmlns="http://www.w3.org/2000/svg" width="100" height="100" viewBox="0 0 1000 1000">
  <defs>
    <style>
      .cls-1 {
        fill: #f8f8f8;
        fill-rule: evenodd;
      }
    </style>
  </defs>
  <path class="cls-1" d="M514.721,61q-9.765,65.388-19.531,130.789c-69.5.966-123.486,28.647-174.8,45.874v-1.952q-11.716-62.46-23.437-124.933C359.344,81.214,420.707,62,514.721,61ZM641.672,194.717q12.205-50.748,24.414-101.508c36.974,6.5,72.113,36.127,98.631,55.634,87.633,64.464,142.73,151.445,168.943,278.171,9.564,46.241,7.34,179.162-15.625,205.944l-41.015-24.4c11.02-39.715,8.092-120.291.976-161.046-5.218-29.887-7.476-55.174-15.624-81.011C833.058,273.548,761.918,195.535,641.672,194.717ZM169.023,212.286c7.85,6.677,29.765,87.056,31.25,102.484C129.473,370.879,68.6,506.784,86.994,638.814l-1.953-.976c-5.621-30.934-14.612-62.537-20.508-97.6-4.065-24.18-2.865-60.31.977-82.963,4.944-29.154,5.947-53.716,13.672-79.059C99.83,310.464,133.344,263.061,169.023,212.286Zm305.66,57.586,25.39,0.976c-16.992,60.776-35.692,127.016-62.5,180.567-10.556,21.087-13.864,44.576-27.344,62.466h-0.976L336.013,329.41c16.716-30.814,68.153-39.883,104.49-50.754Zm144.528,4.88c97.82,24.7,154.49,84.761,175.779,187.4,7.106,34.26-3.415,71.553-7.812,99.556h-3.907c-53.456-18.022-151.992-34.959-214.84-12.688-25.216,8.935-44.65,24.789-66.405,34.161v-2.928l34.179-83.939c23.548-43.861,38.917-91.095,58.593-139.574C604.437,332.99,615.932,303.2,619.211,274.752ZM244.218,387.972c16.359,14.444,19.878,49.146,30.272,69.3,19.081,36.994,30.859,77.673,49.8,116.149,6.138,12.464,15.318,27.016,18.555,41.969-4.836,4.3-5.057,11.009-8.789,16.593-10.707,16.018-28.085,31.2-45.9,40.017-38,18.8-67.756-16.9-78.124-38.065C168.038,548.192,215.653,450.558,244.218,387.972ZM624.094,608.557c50.391-1.065,100.149,13.1,128.9,34.161C725.513,694.712,612.48,769,555.736,695.424,518.512,647.156,595.855,622.706,624.094,608.557Zm-163.083,46.85q1.464,22.933,2.93,45.873c7.14,35.714,20.975,66.98,44.921,85.892,69.948,55.243,189.993,36.933,258.785-5.856,19.706-12.258,33.993-29.348,51.757-42.946h1.953l30.273,24.4c-55.985,80.439-144.4,136.08-252.926,163.974-124.667,32.042-256.761-9.662-333-57.586-24.219-15.223-43.791-35.317-65.429-52.706-15.728-12.64-33.715-30.067-43.945-47.826,24.064,10.905,41.571,28.512,72.265,36.113,99.788,24.714,163.629-57.071,200.192-108.34Z"/>
</svg>
